<svg xmlns="http://www.w3.org/2000/svg" viewBox="0 0 512 512" width="512" height="512">
  <defs>
    <linearGradient id="g3a" x1="0%" y1="0%" x2="0%" y2="100%">
      <stop offset="0%" stop-color="#e09f3e"/>
      <stop offset="100%" stop-color="#c48a2f"/>
    </linearGradient>
    <linearGradient id="g3b" x1="0%" y1="0%" x2="100%" y2="100%">
      <stop offset="0%" stop-color="#6895d2"/>
      <stop offset="50%" stop-color="#3ecfa5"/>
    </linearGradient>
    <filter id="glow3">
      <feGaussianBlur stdDeviation="8" result="blur"/>
      <feMerge><feMergeNode in="blur"/><feMergeNode in="SourceGraphic"/></feMerge>
    </filter>
    <clipPath id="tClip">
      <!-- T shape -->
      <path d="M120,100 H392 V170 H290 V420 H222 V170 H120 Z"/>
    </clipPath>
  </defs>
  <!-- Background circle -->
  <circle cx="256" cy="256" r="240" fill="#09090b"/>
  <circle cx="256" cy="256" r="238" fill="none" stroke="rgba(255,255,255,0.06)" stroke-width="3"/>
  <!-- Bold geometric T in gold -->
  <g filter="url(#glow3)">
    <path d="M120,100 H392 V170 H290 V420 H222 V170 H120 Z" fill="url(#g3a)"/>
  </g>
  <!-- Audio bars inside the T stem -->
  <g clip-path="url(#tClip)" opacity="0.5">
    <rect x="230" y="185" width="52" height="8" rx="4" fill="url(#g3b)"/>
    <rect x="235" y="205" width="42" height="8" rx="4" fill="url(#g3b)"/>
    <rect x="228" y="225" width="56" height="8" rx="4" fill="url(#g3b)"/>
    <rect x="238" y="245" width="36" height="8" rx="4" fill="url(#g3b)"/>
    <rect x="232" y="265" width="48" height="8" rx="4" fill="url(#g3b)"/>
    <rect x="226" y="285" width="60" height="8" rx="4" fill="url(#g3b)"/>
    <rect x="234" y="305" width="44" height="8" rx="4" fill="url(#g3b)"/>
    <rect x="230" y="325" width="52" height="8" rx="4" fill="url(#g3b)"/>
    <rect x="236" y="345" width="40" height="8" rx="4" fill="url(#g3b)"/>
    <rect x="228" y="365" width="56" height="8" rx="4" fill="url(#g3b)"/>
    <rect x="233" y="385" width="46" height="8" rx="4" fill="url(#g3b)"/>
    <rect x="230" y="405" width="52" height="8" rx="4" fill="url(#g3b)"/>
  </g>
  <!-- Subtle corner accents -->
  <line x1="56" y1="56" x2="100" y2="56" stroke="#e09f3e" stroke-width="2" opacity="0.3"/>
  <line x1="56" y1="56" x2="56" y2="100" stroke="#e09f3e" stroke-width="2" opacity="0.3"/>
  <line x1="456" y1="456" x2="412" y2="456" stroke="#3ecfa5" stroke-width="2" opacity="0.3"/>
  <line x1="456" y1="456" x2="456" y2="412" stroke="#3ecfa5" stroke-width="2" opacity="0.3"/>
</svg>
