<svg xmlns="http://www.w3.org/2000/svg" viewBox="0 0 500 500" width="100%" height="100%">
  <defs>
    <linearGradient id="layerGrad" x1="0%" y1="0%" x2="100%" y2="100%">
      <stop offset="0%" stop-color="#f6d365" />
      <stop offset="100%" stop-color="#fda085" />
    </linearGradient>
    
    <filter id="crtDistortion" x="-50%" y="-50%" width="200%" height="200%">
      <!-- Generate noise but animate the baseFrequency for a flickering effect -->
      <feTurbulence type="fractalNoise" baseFrequency="0.01 0.1" numOctaves="1" result="noise">
        <animate attributeName="baseFrequency" values="0.01 0.1; 0.2 0.05; 0.01 0.5; 0.0 0.0" begin="0.2s" dur="0.8s" calcMode="discrete" fill="freeze" />
      </feTurbulence>
      
      <!-- Displace the image severely, then animate the scale (intensity) down to 0 -->
      <feDisplacementMap in="SourceGraphic" in2="noise" scale="50" xChannelSelector="R" yChannelSelector="B" result="displaced">
        <animate attributeName="scale" values="100; -80; 50; -30; 10; 0" begin="0.2s" dur="0.9s" calcMode="discrete" fill="freeze" />
      </feDisplacementMap>
      
      <!-- Add a color matrix to split RGB violently then snap back to normal -->
      <feColorMatrix type="matrix" values="
        1 0 0 0 0
        0 1 0 0 0
        0 0 1 0 0
        0 0 0 1 0" in="displaced" result="colorGlitch">
        <animate attributeName="values" values="
          2 0 0 0 0  0 0.5 0 0 0  0 0 0.5 0 0  0 0 0 1 0;
          0.5 0 0 0 0  0 2 0 0 0  0 0 0.5 0 0  0 0 0 1 0;
          0.5 0 0 0 0  0 0.5 0 0 0  0 0 2 0 0  0 0 0 1 0;
          1 0 0 0 0  0 1 0 0 0  0 0 1 0 0  0 0 0 1 0" 
          begin="0.2s" dur="0.9s" calcMode="discrete" fill="freeze" />
      </feColorMatrix>
    </filter>
  </defs>

  <g transform="translate(250, 165) scale(1.55)" filter="url(#crtDistortion)" fill="url(#layerGrad)" stroke="#181514" stroke-width="3.8" stroke-linejoin="round">
    
    <!-- Have everything pop in instantly to let the CRT filter do the work -->
    <g opacity="0">
      <animate attributeName="opacity" values="0;1" begin="0.2s" dur="0.1s" fill="freeze" />
      <polygon points="0,180 120,120 0,60 -120,120" opacity="0.3" />
    </g>
    
    <g opacity="0">
      <animate attributeName="opacity" values="0;1" begin="0.2s" dur="0.1s" fill="freeze" />
      <polygon points="0,140 120,80 0,20 -120,80" opacity="0.6" />
    </g>
    
    <g opacity="0">
      <animate attributeName="opacity" values="0;1" begin="0.2s" dur="0.1s" fill="freeze" />
      <polygon points="0,100 120,40 0,-20 -120,40" />
    </g>

    <g stroke="#ffffff" stroke-width="2.5" opacity="0">
      <animate attributeName="opacity" values="0;1" begin="0.2s" dur="0.1s" fill="freeze" />
      <g>
        <path d="M -16,-45 L -16,-62 Q -16,-74 0,-74 Q 16,-74 16,-62 L 16,-45 Z" fill="#FF8D9E" />
        <polygon points="-16,-45 16,-45 16,-20 -16,-20" fill="#94A3B8" />
        <line x1="-16" y1="-32.5" x2="16" y2="-32.5" />
        <polygon points="-16,-20 0,-20 0,140 -16,140" fill="#FBBF24" />
        <polygon points="0,-20 16,-20 16,140 0,140" fill="#F59E0B" />
        <polygon points="-16,140 0,140 0,190" fill="#FDE68A" />
        <polygon points="0,140 16,140 0,190" fill="#FCD34D" />
        <polygon points="-6.4,170 6.4,170 0,190" fill="#181514" />
      </g>
    </g>
  </g>
</svg>
